<svg data-v-423bf9ae="" xmlns="http://www.w3.org/2000/svg" viewBox="0 0 307.5428553989955 60" class="font"><!----><!----><!----><g data-v-423bf9ae="" id="f0bfc1be-1b2f-4dbf-828d-2a3586c32f2b" fill="#488eff" transform="matrix(5.714285714285714,0,0,5.714285714285714,-8.457139219556552,-20.799999884196694)"><path d="M2.56 13.05L2.56 9.39L6.82 9.39L6.82 8.44L2.56 8.44L2.56 4.72L7.11 4.72L7.11 3.78L1.48 3.78L1.48 14L7.14 14L7.14 13.05ZM8.68 8.88C8.68 12.01 11.14 14.14 13.97 14.14C16.49 14.14 18.44 12.56 18.87 10.46L17.75 10.46C17.32 12.11 15.85 13.13 13.97 13.13C11.75 13.13 9.79 11.44 9.79 8.88C9.79 6.33 11.75 4.65 13.97 4.65C16.10 4.65 17.49 5.99 17.71 7.78L18.83 7.78C18.63 5.61 16.76 3.64 13.97 3.64C11.13 3.64 8.68 5.75 8.68 8.88ZM20.26 8.88C20.26 12.01 22.71 14.14 25.61 14.14C28.53 14.14 30.98 12.01 30.98 8.88C30.98 5.75 28.53 3.64 25.61 3.64C22.71 3.64 20.26 5.75 20.26 8.88ZM21.36 8.88C21.36 6.30 23.31 4.61 25.61 4.61C27.93 4.61 29.86 6.30 29.86 8.88C29.86 11.47 27.93 13.17 25.61 13.17C23.31 13.17 21.36 11.47 21.36 8.88ZM41.80 3.78L37.98 9.63L34.17 3.78L33.21 3.78L33.21 14L34.22 14L34.22 5.57L37.70 10.82L38.32 10.82L41.76 5.52L41.76 14L42.77 14L42.77 3.78ZM54.33 3.78L50.51 9.63L46.70 3.78L45.74 3.78L45.74 14L46.75 14L46.75 5.57L50.23 10.82L50.85 10.82L54.29 5.52L54.29 14L55.30 14L55.30 3.78Z"></path></g><!----><!----></svg>